<?xml version="1.0" standalone="no"?>
<!DOCTYPE svg PUBLIC "-//W3C//DTD SVG 20010904//EN"
 "http://www.w3.org/TR/2001/REC-SVG-20010904/DTD/svg10.dtd">
<svg version="1.0" xmlns="http://www.w3.org/2000/svg"
 width="640.000000pt" height="640.000000pt" viewBox="0 0 640.000000 640.000000"
 preserveAspectRatio="xMidYMid meet">
<metadata>
Created by potrace 1.14, written by Peter Selinger 2001-2017
</metadata>
<g transform="translate(0.000000,640.000000) scale(0.100000,-0.100000)"
fill="#000000" stroke="none">
<path d="M3700 6322 c0 -7 4 -12 8 -12 5 0 13 -12 19 -27 9 -24 11 -25 12 -7
1 11 -8 29 -19 39 -11 10 -20 13 -20 7z"/>
<path d="M3622 6280 c-13 -11 -49 -27 -80 -37 -66 -19 -87 -33 -51 -33 29 0
169 66 169 80 0 15 -12 12 -38 -10z"/>
<path d="M3748 6215 c2 -19 8 -38 13 -41 10 -6 0 57 -10 68 -4 5 -5 -8 -3 -27z"/>
<path d="M3317 6213 c-4 -3 -53 -12 -110 -19 -145 -19 -195 -29 -250 -53 -27
-12 -53 -21 -59 -21 -10 0 -81 -32 -198 -88 -47 -23 -104 -59 -194 -122 -11
-8 -37 -29 -56 -47 -19 -18 -38 -33 -42 -33 -3 0 -20 -13 -36 -30 -17 -16 -35
-30 -41 -30 -6 0 -11 -3 -11 -8 0 -4 -27 -36 -61 -71 -45 -48 -57 -67 -49 -75
9 -8 24 2 58 40 26 27 64 59 85 70 22 10 50 31 62 47 13 15 28 27 34 27 6 0
11 5 11 10 0 6 11 16 25 22 14 6 30 23 37 38 9 20 17 26 35 22 15 -3 25 1 29
12 3 9 10 16 16 16 5 0 35 17 67 38 92 61 140 84 251 122 36 11 82 30 102 41
23 12 46 17 61 14 13 -4 39 0 58 8 19 7 62 14 97 14 34 1 68 5 75 10 6 5 35
10 62 11 34 2 56 9 70 22 19 20 19 20 -51 20 -39 0 -74 -3 -77 -7z"/>
<path d="M3771 6123 c0 -4 4 -17 9 -28 8 -19 9 -19 9 2 1 12 -3 25 -9 28 -5 3
-10 3 -9 -2z"/>
<path d="M3794 6024 c3 -9 6 -34 6 -55 0 -25 4 -38 10 -34 6 4 8 23 6 43 -3
20 -5 43 -5 50 -1 6 -6 12 -12 12 -6 0 -8 -7 -5 -16z"/>
<path d="M3315 5959 c-10 -15 3 -25 16 -12 7 7 7 13 1 17 -6 3 -14 1 -17 -5z"/>
<path d="M3821 5774 c0 -11 3 -14 6 -6 3 7 2 16 -1 19 -3 4 -6 -2 -5 -13z"/>
<path d="M2605 5723 c-35 -4 -125 -43 -125 -54 0 -3 -10 -10 -22 -14 -15 -4
-18 -8 -10 -12 7 -3 47 11 88 31 42 20 82 36 90 36 8 0 14 5 14 10 0 6 -1 9
-2 9 -2 -1 -16 -4 -33 -6z"/>
<path d="M2720 5723 c30 -2 59 -8 65 -14 5 -5 38 -9 74 -9 113 0 54 18 -74 23
-66 2 -95 2 -65 0z"/>
<path d="M2940 5696 c0 -7 21 -21 48 -31 75 -27 136 -56 147 -68 13 -16 101
-77 110 -77 7 0 109 -67 143 -94 54 -42 152 -152 152 -170 0 -8 4 -17 9 -21
12 -7 58 -88 66 -118 4 -12 18 -46 31 -75 14 -29 34 -83 45 -120 11 -37 24
-75 29 -84 6 -10 10 -30 10 -45 0 -16 5 -35 11 -43 8 -11 9 0 4 40 -7 59 -32
149 -46 165 -5 5 -9 16 -9 25 0 8 -7 28 -15 44 -8 15 -15 32 -15 36 0 5 -13
37 -29 72 -15 35 -31 70 -35 78 -11 26 -31 55 -43 63 -7 4 -13 13 -13 20 0 7
-34 48 -75 92 -41 43 -75 83 -75 87 0 4 -4 8 -8 8 -18 0 -190 99 -215 123 -14
15 -37 29 -51 33 -14 3 -26 10 -26 15 0 5 -7 9 -15 9 -8 0 -15 4 -15 9 0 9
-83 41 -107 41 -7 0 -13 -6 -13 -14z"/>
<path d="M3842 5660 c0 -14 3 -34 8 -45 l9 -20 -1 20 c0 11 -4 31 -8 45 l-8
25 0 -25z"/>
<path d="M2373 5616 c-13 -6 -23 -17 -23 -24 0 -8 10 -5 30 10 42 31 39 37 -7
14z"/>
<path d="M2163 5585 c-30 -21 -179 -232 -170 -241 4 -4 67 71 67 81 0 3 22 28
49 55 27 27 46 52 43 55 -3 3 5 16 18 30 27 29 23 41 -7 20z"/>
<path d="M2275 5549 c-4 -6 -5 -13 -2 -16 7 -7 27 6 27 18 0 12 -17 12 -25 -2z"/>
<path d="M2660 5460 c-8 -5 -30 -10 -48 -10 -44 0 -162 -30 -162 -41 0 -5 -7
-9 -15 -9 -8 0 -15 -3 -15 -7 -1 -5 -24 -24 -52 -43 -28 -19 -63 -46 -77 -60
-59 -58 -141 -155 -141 -167 0 -7 -4 -21 -10 -31 -5 -9 -16 -33 -24 -52 -8
-19 -24 -51 -34 -70 -28 -49 -60 -154 -70 -225 -20 -146 5 -341 50 -392 12
-13 20 -36 20 -56 0 -27 9 -44 39 -76 21 -22 39 -45 39 -51 0 -5 3 -10 8 -10
4 0 39 -30 77 -65 39 -36 90 -79 115 -95 59 -37 175 -90 200 -90 10 0 21 -4
24 -9 8 -13 60 -21 146 -24 72 -2 131 -22 152 -52 5 -6 8 -6 8 1 0 14 23 23
150 59 96 28 184 76 208 114 6 12 29 32 50 45 74 47 192 177 227 253 14 28 25
56 25 62 0 6 9 26 20 46 11 20 20 48 20 63 0 15 7 38 16 50 13 19 15 40 10
110 -3 48 -5 95 -6 104 0 12 -5 15 -17 11 -13 -5 -15 -2 -10 16 3 12 -1 34 -9
49 -9 17 -10 30 -4 36 14 14 13 53 -1 62 -9 5 -10 -1 -5 -20 3 -14 2 -26 -3
-26 -14 0 -18 33 -7 52 7 12 6 25 -3 45 -50 105 -156 265 -193 289 -15 10 -40
36 -55 57 -14 20 -31 37 -39 37 -7 0 -14 4 -16 8 -14 33 -181 95 -288 107
-109 12 -285 15 -300 5z m620 -656 c63 -22 136 -78 159 -121 20 -38 14 -136
-11 -183 -26 -48 -77 -91 -127 -108 -42 -15 -101 -16 -101 -2 0 6 -6 10 -13
10 -30 0 -97 42 -126 78 -47 60 -58 115 -36 185 20 64 60 107 129 138 50 23
68 23 126 3z m-752 -58 c78 -40 108 -80 116 -154 10 -101 -24 -159 -128 -218
-77 -44 -190 -19 -262 58 -50 53 -59 105 -33 198 34 119 187 177 307 116z
m1067 -185 c-6 -21 -25 -29 -25 -11 0 6 5 10 10 10 6 0 10 8 10 17 0 9 3 14 6
10 3 -3 3 -15 -1 -26z m-1335 -201 c0 -5 -7 -10 -16 -10 -8 0 -12 5 -9 10 3 6
10 10 16 10 5 0 9 -4 9 -10z m1215 -11 c11 -17 2 -18 -19 -3 -17 12 -17 14 -4
14 9 0 20 -5 23 -11z m-1089 -250 c5 -8 9 -8 14 1 6 9 16 8 42 -4 21 -10 62
-17 104 -18 38 0 75 -5 82 -10 16 -14 15 -36 -4 -55 -14 -14 -13 -18 5 -37 22
-23 28 -42 12 -31 -5 3 -12 1 -15 -4 -6 -9 -40 -1 -104 26 -18 8 -37 11 -43 7
-6 -3 -24 8 -40 25 -19 21 -35 30 -47 27 -12 -4 -21 3 -31 24 -13 31 -9 60 8
60 5 0 13 -5 17 -11z m674 -8 c0 -6 -4 -13 -10 -16 -5 -3 -10 1 -10 9 0 9 5
16 10 16 6 0 10 -4 10 -9z m-168 -66 c0 -5 -5 -11 -11 -13 -6 -2 -11 4 -11 13
0 9 5 15 11 13 6 -2 11 -8 11 -13z m48 5 c0 -5 -4 -10 -10 -10 -5 0 -10 5 -10
10 0 6 5 10 10 10 6 0 10 -4 10 -10z m84 -26 c9 -22 8 -24 -9 -24 -8 0 -15 9
-15 20 0 24 15 27 24 4z m36 -38 c0 -2 -7 -7 -16 -10 -8 -3 -12 -2 -9 4 6 10
25 14 25 6z m-245 -22 c9 -9 14 -18 12 -20 -6 -7 -54 13 -62 25 -10 17 32 13
50 -5z m144 -15 c27 -22 23 -34 -8 -24 -25 8 -49 45 -29 45 7 -1 24 -10 37
-21z"/>
<path d="M3195 4640 c-4 -6 -4 -22 -1 -36 11 -42 70 -26 64 17 -2 17 -10 25
-30 27 -14 2 -29 -2 -33 -8z"/>
<path d="M2403 4595 c-16 -18 -16 -23 1 -41 21 -20 49 -17 64 7 24 39 -34 69
-65 34z"/>
<path d="M1961 5304 c-6 -15 -9 -29 -7 -32 3 -2 10 8 16 23 14 36 7 43 -9 9z"/>
<path d="M1932 5238 c-7 -7 -12 -22 -12 -35 0 -13 -4 -23 -10 -23 -5 0 -10
-11 -10 -25 0 -13 -4 -34 -9 -47 -5 -13 -14 -48 -21 -78 -6 -30 -14 -63 -17
-73 -4 -16 -2 -17 16 -8 12 7 23 26 27 49 4 20 13 49 20 64 8 15 14 49 14 77
0 27 5 62 10 77 12 31 9 39 -8 22z"/>
<path d="M3963 5115 c0 -44 2 -61 4 -37 2 23 2 59 0 80 -2 20 -4 1 -4 -43z"/>
<path d="M3963 4880 c0 -47 2 -66 4 -42 2 23 2 61 0 85 -2 23 -4 4 -4 -43z"/>
<path d="M3942 4765 c0 -16 2 -22 5 -12 2 9 2 23 0 30 -3 6 -5 -1 -5 -18z"/>
<path d="M3756 4650 c11 -130 5 -198 -22 -253 -13 -28 -24 -58 -24 -67 0 -9
-5 -21 -11 -27 -6 -6 -9 -19 -7 -29 3 -13 12 -2 30 36 47 99 58 132 58 171 0
21 4 40 8 43 10 6 -1 84 -22 151 l-16 50 6 -75z"/>
<path d="M3922 4630 c0 -19 2 -27 5 -17 2 9 2 25 0 35 -3 9 -5 1 -5 -18z"/>
<path d="M3865 4448 c-11 -51 -74 -192 -92 -205 -14 -11 -14 -13 -2 -13 26 0
79 73 79 110 0 14 4 30 8 36 8 8 32 83 32 98 0 3 -4 6 -9 6 -5 0 -12 -15 -16
-32z"/>
<path d="M3535 4050 c-23 -33 -26 -43 -15 -53 10 -9 11 -9 6 1 -8 13 9 46 39
76 9 9 12 16 7 16 -5 0 -22 -18 -37 -40z"/>
<path d="M4525 4040 c3 -5 8 -10 11 -10 2 0 4 5 4 10 0 6 -5 10 -11 10 -5 0
-7 -4 -4 -10z"/>
<path d="M3316 3875 c25 -19 41 -19 41 0 0 10 -10 15 -31 15 -28 0 -29 -1 -10
-15z"/>
<path d="M2473 3829 c11 -7 23 -7 35 0 14 9 11 10 -18 10 -29 0 -32 -1 -17
-10z"/>
<path d="M3120 3825 c-11 -13 -8 -15 19 -15 21 0 31 5 31 15 0 8 -8 15 -19 15
-10 0 -24 -7 -31 -15z"/>
<path d="M2326 3780 c-26 -27 -45 -50 -41 -50 10 0 105 84 105 93 0 17 -19 4
-64 -43z"/>
<path d="M2910 3794 c0 -5 7 -20 16 -32 17 -25 50 -31 41 -8 -3 8 -1 17 6 19
7 2 3 3 -8 1 -10 -2 -27 4 -37 13 -10 9 -18 12 -18 7z"/>
<path d="M3565 3660 c-3 -5 1 -10 9 -10 9 0 16 5 16 10 0 6 -4 10 -9 10 -6 0
-13 -4 -16 -10z"/>
<path d="M3533 3642 c-15 -10 -20 -44 -7 -49 6 -2 14 9 17 24 6 32 5 34 -10
25z"/>
<path d="M1060 3625 c0 -8 3 -15 6 -15 3 0 12 7 20 15 14 13 13 15 -5 15 -12
0 -21 -6 -21 -15z"/>
<path d="M3458 3588 c10 -40 42 -46 42 -8 0 16 -18 30 -40 30 -4 0 -6 -10 -2
-22z"/>
<path d="M3450 3535 c0 -8 -3 -14 -7 -14 -23 4 -25 -3 -5 -17 12 -8 22 -22 22
-30 0 -8 4 -14 9 -14 17 0 21 -33 6 -50 -19 -21 -9 -33 17 -19 15 8 24 7 39
-7 10 -9 19 -12 19 -6 0 6 -4 14 -10 17 -14 9 -12 21 6 39 16 17 13 19 -23 16
-15 -1 -22 5 -25 22 -2 12 -12 27 -23 33 -12 6 -19 18 -17 28 2 9 1 17 -2 17
-3 0 -6 -7 -6 -15z"/>
<path d="M3680 3520 c0 -5 5 -10 11 -10 5 0 7 5 4 10 -3 6 -8 10 -11 10 -2 0
-4 -4 -4 -10z"/>
<path d="M3700 3464 c0 -9 -9 -18 -19 -21 -22 -6 -36 -43 -16 -43 8 0 16 8 19
18 3 9 16 22 28 27 29 13 35 35 9 35 -13 0 -21 -6 -21 -16z"/>
<path d="M1146 3412 c-4 -4 -11 -7 -15 -7 -16 0 -41 -35 -41 -57 -1 -22 -2
-22 -30 10 -34 37 -68 41 -95 12 -10 -11 -13 -20 -7 -20 6 0 12 5 14 12 6 18
54 1 93 -33 l35 -31 23 50 c12 28 29 53 37 54 10 2 11 6 4 10 -6 4 -14 4 -18
0z"/>
<path d="M4673 3405 c-3 -9 -3 -18 0 -21 9 -9 27 6 27 22 0 19 -19 18 -27 -1z"/>
<path d="M3617 3396 c-6 -15 1 -26 15 -26 11 0 10 27 -1 34 -5 3 -11 0 -14 -8z"/>
<path d="M2062 3360 c0 -14 2 -19 5 -12 2 6 2 18 0 25 -3 6 -5 1 -5 -13z"/>
<path d="M3580 3360 c-13 -8 -13 -10 2 -10 9 0 20 5 23 10 8 13 -5 13 -25 0z"/>
<path d="M1306 3353 c5 -5 12 -12 16 -18 4 -6 8 -2 8 8 0 9 -7 17 -17 17 -9 0
-12 -3 -7 -7z"/>
<path d="M921 3319 c-7 -12 -10 -23 -8 -26 3 -3 11 5 17 17 15 28 8 35 -9 9z"/>
<path d="M2020 3279 c0 -5 5 -7 10 -4 6 3 10 8 10 11 0 2 -4 4 -10 4 -5 0 -10
-5 -10 -11z"/>
<path d="M1340 3263 c0 -30 22 -83 27 -62 2 8 -3 31 -11 50 -12 27 -15 29 -16
12z"/>
<path d="M970 3174 c0 -21 64 -124 77 -124 8 0 2 20 -10 32 -27 28 -47 63 -47
85 0 12 -4 25 -10 28 -6 4 -10 -5 -10 -21z"/>
<path d="M1380 3171 c0 -6 4 -13 10 -16 6 -3 7 1 4 9 -7 18 -14 21 -14 7z"/>
<path d="M2570 3120 c-6 -12 -9 -26 -6 -33 3 -9 5 -9 5 1 1 6 8 12 16 12 8 0
15 6 15 14 0 25 -18 28 -30 6z"/>
<path d="M2572 3061 c-75 -72 -89 -101 -49 -98 25 1 46 24 47 48 0 9 6 19 14
22 10 4 15 -7 19 -39 8 -75 27 -70 48 13 6 23 20 49 30 59 10 9 19 24 19 32 0
12 -4 12 -25 -2 -33 -22 -38 -20 -31 9 4 14 5 25 3 25 -1 0 -35 -31 -75 -69z"/>
<path d="M1862 3087 c-17 -13 -29 -27 -25 -30 3 -4 -6 -7 -20 -7 -15 0 -27 -4
-27 -9 0 -18 45 3 79 36 40 39 38 42 -7 10z"/>
<path d="M2522 3060 c0 -14 2 -19 5 -12 2 6 2 18 0 25 -3 6 -5 1 -5 -13z"/>
<path d="M4665 3040 c-3 -5 -2 -10 4 -10 5 0 13 5 16 10 3 6 2 10 -4 10 -5 0
-13 -4 -16 -10z"/>
<path d="M2690 3025 c0 -8 2 -15 4 -15 2 0 6 7 10 15 3 8 1 15 -4 15 -6 0 -10
-7 -10 -15z"/>
<path d="M3584 3024 c3 -9 6 -18 6 -20 0 -3 4 -3 10 1 11 7 2 35 -12 35 -6 0
-7 -7 -4 -16z"/>
<path d="M1168 3023 c6 -2 18 -2 25 0 6 3 1 5 -13 5 -14 0 -19 -2 -12 -5z"/>
<path d="M1210 3016 c0 -8 5 -18 10 -21 6 -3 10 1 10 9 0 8 -4 18 -10 21 -5 3
-10 -1 -10 -9z"/>
<path d="M1723 3023 c9 -2 23 -2 30 0 6 3 -1 5 -18 5 -16 0 -22 -2 -12 -5z"/>
<path d="M2191 2976 c-8 -10 -9 -16 -1 -21 5 -3 13 1 16 10 9 22 -1 29 -15 11z"/>
<path d="M3314 2874 c3 -9 6 -24 6 -35 0 -21 8 -23 29 -10 11 7 10 13 -5 35
-21 28 -40 35 -30 10z"/>
<path d="M1300 2735 c0 -8 5 -15 10 -15 6 0 10 7 10 15 0 8 -4 15 -10 15 -5 0
-10 -7 -10 -15z"/>
<path d="M2964 2615 c36 -19 52 -19 36 0 -7 8 -24 15 -39 15 l-26 0 29 -15z"/>
<path d="M4245 2481 c7 -12 75 -35 82 -28 3 3 -12 13 -32 21 -43 18 -59 20
-50 7z"/>
<path d="M2742 2455 c15 -8 29 -24 33 -35 8 -25 25 -26 25 -2 -1 29 -26 52
-56 52 l-29 -1 27 -14z"/>
<path d="M3136 2442 c-3 -5 4 -17 16 -26 19 -17 20 -19 5 -28 -25 -13 -21 -31
3 -18 25 13 28 65 4 74 -20 8 -22 8 -28 -2z"/>
<path d="M2605 2430 c-3 -5 -1 -10 4 -10 6 0 11 5 11 10 0 6 -2 10 -4 10 -3 0
-8 -4 -11 -10z"/>
<path d="M3218 2423 c7 -3 16 -2 19 1 4 3 -2 6 -13 5 -11 0 -14 -3 -6 -6z"/>
<path d="M2560 2410 c0 -5 4 -10 9 -10 6 0 13 5 16 10 3 6 -1 10 -9 10 -9 0
-16 -4 -16 -10z"/>
<path d="M4400 2402 c0 -5 7 -17 15 -28 8 -10 15 -27 15 -36 0 -10 4 -18 8
-18 10 0 -7 -123 -18 -130 -4 -3 -8 -16 -8 -30 0 -29 -46 -135 -67 -157 -16
-16 -20 -33 -7 -33 11 0 42 38 42 53 0 6 7 21 15 31 8 11 15 30 15 42 0 13 5
26 10 29 6 3 10 17 10 30 0 13 4 25 10 27 5 2 10 44 12 95 3 86 2 92 -21 112
-26 23 -31 25 -31 13z"/>
<path d="M2530 2380 c0 -11 5 -20 10 -20 6 0 10 9 10 20 0 11 -4 20 -10 20 -5
0 -10 -9 -10 -20z"/>
<path d="M3700 2360 c0 -5 5 -10 10 -10 6 0 10 5 10 10 0 6 -4 10 -10 10 -5 0
-10 -4 -10 -10z"/>
<path d="M3938 2357 c-33 -13 -37 -27 -8 -27 11 0 20 5 20 10 0 6 11 10 25 10
14 0 25 5 25 10 0 12 -27 11 -62 -3z"/>
<path d="M4068 2363 c7 -3 16 -2 19 1 4 3 -2 6 -13 5 -11 0 -14 -3 -6 -6z"/>
<path d="M4160 2360 c0 -5 7 -10 16 -10 8 0 12 5 9 10 -3 6 -10 10 -16 10 -5
0 -9 -4 -9 -10z"/>
<path d="M3126 2335 c-22 -17 -17 -29 8 -19 9 3 16 12 16 20 0 17 0 17 -24 -1z"/>
<path d="M3315 2340 c-3 -5 -1 -10 4 -10 6 0 11 5 11 10 0 6 -2 10 -4 10 -3 0
-8 -4 -11 -10z"/>
<path d="M4288 2323 c28 -14 52 -32 52 -39 0 -16 26 -19 35 -3 9 14 -20 35
-77 53 -67 23 -71 19 -10 -11z"/>
<path d="M3789 2301 c24 -23 53 -41 65 -41 20 1 20 1 2 15 -10 7 -15 18 -12
23 3 6 -2 8 -13 5 -11 -3 -35 5 -53 17 -27 18 -25 14 11 -19z"/>
<path d="M2522 2260 c0 -14 2 -19 5 -12 2 6 2 18 0 25 -3 6 -5 1 -5 -13z"/>
<path d="M4154 2261 c4 -6 18 -11 31 -11 13 0 27 -4 30 -10 8 -12 45 -13 45
-1 0 5 -12 11 -27 14 -16 3 -41 9 -57 13 -21 5 -27 4 -22 -5z"/>
<path d="M4328 2253 c7 -3 16 -2 19 1 4 3 -2 6 -13 5 -11 0 -14 -3 -6 -6z"/>
<path d="M4090 2220 c-11 -7 -6 -10 22 -10 20 0 40 5 43 10 8 13 -45 13 -65 0z"/>
<path d="M2982 2203 c2 -10 11 -19 21 -21 23 -5 21 10 -4 26 -18 12 -20 11
-17 -5z"/>
<path d="M3450 2166 c0 -14 5 -28 10 -31 6 -3 10 5 10 19 0 14 -4 28 -10 31
-6 3 -10 -5 -10 -19z"/>
<path d="M4980 2186 c0 -2 9 -6 20 -9 11 -3 20 -1 20 4 0 5 -9 9 -20 9 -11 0
-20 -2 -20 -4z"/>
<path d="M5138 2183 c12 -2 30 -2 40 0 9 3 -1 5 -23 4 -22 0 -30 -2 -17 -4z"/>
<path d="M4640 2166 c0 -9 7 -12 21 -9 16 4 17 8 7 14 -19 13 -28 11 -28 -5z"/>
<path d="M5185 2160 c3 -5 12 -7 20 -3 21 7 19 13 -6 13 -11 0 -18 -4 -14 -10z"/>
<path d="M5350 2160 c0 -6 7 -10 15 -10 8 0 15 2 15 4 0 2 -7 6 -15 10 -8 3
-15 1 -15 -4z"/>
<path d="M5400 2134 c0 -2 9 -8 20 -14 11 -6 20 -7 20 -2 0 6 -9 12 -20 15
-11 3 -20 3 -20 1z"/>
<path d="M3731 2094 c0 -11 3 -14 6 -6 3 7 2 16 -1 19 -3 4 -6 -2 -5 -13z"/>
<path d="M3480 2093 c0 -5 5 -15 10 -23 8 -12 10 -11 10 8 0 12 -4 22 -10 22
-5 0 -10 -3 -10 -7z"/>
<path d="M3750 2063 c0 -11 7 -26 15 -33 20 -17 20 7 0 34 -15 19 -15 19 -15
-1z"/>
<path d="M5109 2064 c-14 -18 -154 -20 -143 -3 4 7 -2 6 -17 -2 -23 -12 -23
-12 -4 -19 11 -4 24 -5 28 -3 5 3 19 2 32 -1 17 -4 22 -11 18 -26 -3 -11 0
-20 6 -20 6 0 11 7 11 15 0 10 10 15 32 15 17 0 28 3 24 7 -4 5 11 12 33 18
40 10 40 10 16 21 -19 9 -27 9 -36 -2z"/>
<path d="M2440 2060 c0 -5 9 -10 21 -10 11 0 17 5 14 10 -3 6 -13 10 -21 10
-8 0 -14 -4 -14 -10z"/>
<path d="M2625 2043 c14 -69 15 -70 40 -70 14 0 25 3 25 8 0 5 8 9 18 9 13 0
14 2 4 9 -7 4 -24 6 -37 4 -19 -4 -24 0 -30 26 -7 32 -26 45 -20 14z"/>
<path d="M5190 2046 c0 -9 6 -16 13 -16 15 0 77 -58 77 -71 0 -5 10 -9 21 -9
19 0 16 5 -17 36 -22 20 -51 45 -66 56 -24 16 -28 17 -28 4z"/>
<path d="M5510 2051 c0 -5 5 -13 10 -16 6 -3 10 -2 10 4 0 5 -4 13 -10 16 -5
3 -10 2 -10 -4z"/>
<path d="M4880 2020 c-8 -5 -12 -11 -9 -14 3 -3 14 1 25 9 21 16 8 20 -16 5z"/>
<path d="M2516 2004 c-5 -12 -2 -15 10 -10 8 3 18 6 20 6 3 0 2 5 -1 10 -9 15
-22 12 -29 -6z"/>
<path d="M3780 1996 c0 -16 55 -66 73 -66 6 0 -7 18 -28 40 -44 45 -45 46 -45
26z"/>
<path d="M2857 1969 c8 -8 16 -8 30 0 16 9 14 10 -11 11 -22 0 -27 -3 -19 -11z"/>
<path d="M2491 1956 c-8 -9 -11 -19 -7 -23 9 -9 29 13 24 27 -2 8 -8 7 -17 -4z"/>
<path d="M2681 1944 c0 -11 3 -14 6 -6 3 7 2 16 -1 19 -3 4 -6 -2 -5 -13z"/>
<path d="M4470 1945 c7 -9 15 -13 17 -11 7 7 -7 26 -19 26 -6 0 -6 -6 2 -15z"/>
<path d="M2440 1940 c0 -5 7 -10 16 -10 8 0 12 5 9 10 -3 6 -10 10 -16 10 -5
0 -9 -4 -9 -10z"/>
<path d="M3360 1942 c0 -4 -13 -12 -29 -18 -51 -20 -85 -124 -40 -124 15 0 19
5 15 15 -9 25 13 69 46 88 28 16 32 16 48 2 21 -19 41 -19 34 0 -4 8 -17 18
-30 21 -13 3 -24 10 -24 15 0 5 -4 9 -10 9 -5 0 -10 -4 -10 -8z"/>
<path d="M4267 1922 c-15 -15 -27 -35 -27 -43 0 -18 -71 -56 -115 -62 -28 -4
-27 -4 6 -6 51 -2 114 36 156 92 39 52 25 66 -20 19z"/>
<path d="M2157 1933 c-4 -3 -7 -13 -7 -22 1 -13 3 -13 11 2 11 19 8 33 -4 20z"/>
<path d="M3916 1895 c4 -8 14 -15 23 -14 10 0 11 2 3 6 -6 2 -10 9 -6 14 3 5
-2 9 -10 9 -10 0 -13 -6 -10 -15z"/>
<path d="M5412 1858 c-1 -27 3 -48 8 -48 14 0 25 51 13 59 -6 3 -12 13 -15 21
-3 8 -6 -6 -6 -32z"/>
<path d="M3993 1883 c9 -2 25 -2 35 0 9 3 1 5 -18 5 -19 0 -27 -2 -17 -5z"/>
<path d="M4168 1883 c7 -3 16 -2 19 1 4 3 -2 6 -13 5 -11 0 -14 -3 -6 -6z"/>
<path d="M4520 1872 c0 -4 9 -13 20 -20 22 -13 27 -3 8 16 -14 14 -28 16 -28
4z"/>
<path d="M4650 1876 c0 -2 6 -9 14 -15 10 -9 15 -8 20 4 4 10 -1 15 -14 15
-11 0 -20 -2 -20 -4z"/>
<path d="M1515 1860 c-3 -5 1 -10 9 -10 9 0 16 5 16 10 0 6 -4 10 -9 10 -6 0
-13 -4 -16 -10z"/>
<path d="M2720 1850 c0 -5 7 -10 15 -10 8 0 15 5 15 10 0 6 -7 10 -15 10 -8 0
-15 -4 -15 -10z"/>
<path d="M5120 1844 c0 -8 -4 -12 -10 -9 -6 4 -10 -8 -10 -30 0 -39 14 -40 23
-3 2 13 8 31 12 41 4 10 3 17 -4 17 -6 0 -11 -7 -11 -16z"/>
<path d="M3958 1838 c6 -6 18 -8 28 -6 14 3 12 5 -9 10 -19 3 -25 2 -19 -4z"/>
<path d="M2462 1810 c-30 -25 -28 -31 8 -19 29 11 38 23 22 32 -4 3 -17 -3
-30 -13z"/>
<path d="M4686 1794 c-3 -7 16 -9 56 -6 36 3 64 0 71 -7 6 -6 21 -11 33 -11
13 0 30 -7 39 -16 9 -9 18 -14 21 -11 9 9 -6 27 -22 27 -8 0 -14 5 -14 10 0 6
-10 10 -23 10 -13 0 -27 3 -30 7 -11 11 -126 9 -131 -3z"/>
<path d="M3394 1785 c-10 -8 -14 -14 -9 -15 15 0 40 18 34 24 -3 3 -14 -1 -25
-9z"/>
<path d="M3692 1780 c-7 -11 -8 -20 -3 -20 9 0 24 30 18 36 -1 2 -8 -6 -15
-16z"/>
<path d="M4958 1743 c6 -2 18 -2 25 0 6 3 1 5 -13 5 -14 0 -19 -2 -12 -5z"/>
<path d="M4990 1726 c0 -2 11 -6 25 -8 14 -3 25 -1 25 3 0 5 -11 9 -25 9 -14
0 -25 -2 -25 -4z"/>
<path d="M5200 1709 c0 -5 9 -9 20 -9 11 0 20 2 20 4 0 2 -9 6 -20 9 -11 3
-20 1 -20 -4z"/>
<path d="M2508 1703 c7 -3 16 -2 19 1 4 3 -2 6 -13 5 -11 0 -14 -3 -6 -6z"/>
<path d="M3570 1683 c-14 -7 -18 -13 -10 -13 17 0 47 17 40 23 -3 2 -16 -2
-30 -10z"/>
<path d="M5187 1656 c-6 -16 19 -30 28 -16 4 6 1 10 -5 10 -6 0 -8 5 -5 10 3
6 2 10 -3 10 -6 0 -12 -6 -15 -14z"/>
<path d="M4188 1643 c7 -3 16 -2 19 1 4 3 -2 6 -13 5 -11 0 -14 -3 -6 -6z"/>
<path d="M2330 1600 c8 -5 20 -10 25 -10 6 0 3 5 -5 10 -8 5 -19 10 -25 10 -5
0 -3 -5 5 -10z"/>
<path d="M3373 1603 c9 -2 23 -2 30 0 6 3 -1 5 -18 5 -16 0 -22 -2 -12 -5z"/>
<path d="M4058 1603 c7 -3 16 -2 19 1 4 3 -2 6 -13 5 -11 0 -14 -3 -6 -6z"/>
<path d="M4010 1590 c0 -5 -11 -10 -24 -10 -65 0 -96 -38 -61 -74 8 -8 15 -19
15 -24 0 -10 51 -64 56 -59 2 2 -10 29 -26 61 l-30 57 45 20 c41 18 60 39 35
39 -5 0 -10 -4 -10 -10z"/>
<path d="M1537 1551 c15 -16 30 -24 32 -18 2 5 -7 18 -20 28 -37 28 -44 22
-12 -10z"/>
<path d="M3268 1573 c6 -2 18 -2 25 0 6 3 1 5 -13 5 -14 0 -19 -2 -12 -5z"/>
<path d="M2438 1563 c7 -3 16 -2 19 1 4 3 -2 6 -13 5 -11 0 -14 -3 -6 -6z"/>
<path d="M4237 1559 c7 -7 15 -10 18 -7 3 3 -2 9 -12 12 -14 6 -15 5 -6 -5z"/>
<path d="M2145 1550 c-3 -5 -1 -10 4 -10 6 0 11 5 11 10 0 6 -2 10 -4 10 -3 0
-8 -4 -11 -10z"/>
<path d="M831 1534 c0 -11 3 -14 6 -6 3 7 2 16 -1 19 -3 4 -6 -2 -5 -13z"/>
<path d="M5335 1540 c-27 -7 -28 -8 -5 -8 14 0 34 3 45 8 25 11 2 11 -40 0z"/>
<path d="M2653 1533 c9 -2 23 -2 30 0 6 3 -1 5 -18 5 -16 0 -22 -2 -12 -5z"/>
<path d="M2908 1533 c12 -2 30 -2 40 0 9 3 -1 5 -23 4 -22 0 -30 -2 -17 -4z"/>
<path d="M3068 1533 c12 -2 30 -2 40 0 9 3 -1 5 -23 4 -22 0 -30 -2 -17 -4z"/>
<path d="M4700 1536 c0 -2 7 -7 16 -10 8 -3 12 -2 9 4 -6 10 -25 14 -25 6z"/>
<path d="M2790 1510 c-8 -5 -12 -12 -9 -15 8 -8 39 5 39 16 0 11 -11 11 -30
-1z"/>
<path d="M4858 1513 c7 -3 16 -2 19 1 4 3 -2 6 -13 5 -11 0 -14 -3 -6 -6z"/>
<path d="M5193 1513 c9 -2 23 -2 30 0 6 3 -1 5 -18 5 -16 0 -22 -2 -12 -5z"/>
<path d="M5258 1513 c6 -2 18 -2 25 0 6 3 1 5 -13 5 -14 0 -19 -2 -12 -5z"/>
<path d="M5005 1500 c3 -5 13 -10 21 -10 8 0 12 5 9 10 -3 6 -13 10 -21 10 -8
0 -12 -4 -9 -10z"/>
<path d="M5060 1500 c0 -12 37 -12 65 0 15 7 10 9 -22 9 -24 1 -43 -3 -43 -9z"/>
<path d="M2678 1492 c-10 -2 -18 -8 -18 -13 0 -13 27 -11 35 2 9 13 4 16 -17
11z"/>
<path d="M2725 1490 c3 -5 13 -10 21 -10 8 0 14 5 14 10 0 6 -9 10 -21 10 -11
0 -17 -4 -14 -10z"/>
<path d="M4692 1436 c-7 -16 -8 -26 -1 -26 12 0 22 25 17 41 -2 6 -9 0 -16
-15z"/>
<path d="M3280 1440 c-8 -5 -12 -11 -10 -14 3 -2 14 2 24 10 22 15 10 19 -14
4z"/>
<path d="M3438 1440 c-16 -4 -28 -6 -28 -4 0 2 -9 -5 -20 -16 -21 -21 -39
-100 -23 -100 5 0 15 21 22 46 14 46 14 46 27 23 7 -13 13 -19 14 -14 0 6 13
18 29 28 26 15 30 15 41 2 7 -9 15 -13 18 -10 10 10 32 -18 32 -41 0 -19 -8
-25 -40 -34 -22 -6 -44 -20 -50 -30 -8 -15 -17 -19 -38 -14 l-27 6 24 -20 c19
-15 22 -25 17 -46 -4 -16 -2 -26 4 -26 6 0 9 4 6 8 -7 12 49 52 72 52 11 0 25
7 32 15 7 8 18 15 25 15 21 0 55 -50 55 -81 0 -31 9 -36 27 -18 8 8 5 21 -13
48 -30 46 -55 72 -64 66 -12 -7 -18 30 -9 48 11 19 -2 56 -27 78 -24 21 -71
30 -106 19z"/>
<path d="M4497 1299 c-21 -24 -18 -33 7 -23 9 3 16 15 16 25 0 24 -2 24 -23
-2z"/>
<path d="M880 1288 c0 -15 5 -30 11 -33 16 -11 17 -2 3 30 l-13 30 -1 -27z"/>
<path d="M3161 1294 c0 -11 3 -14 6 -6 3 7 2 16 -1 19 -3 4 -6 -2 -5 -13z"/>
<path d="M3370 1290 c0 -5 5 -10 10 -10 6 0 10 5 10 10 0 6 -4 10 -10 10 -5 0
-10 -4 -10 -10z"/>
<path d="M4398 1233 c7 -3 16 -2 19 1 4 3 -2 6 -13 5 -11 0 -14 -3 -6 -6z"/>
<path d="M2000 1220 c0 -5 5 -10 10 -10 6 0 10 5 10 10 0 6 -4 10 -10 10 -5 0
-10 -4 -10 -10z"/>
<path d="M4658 1187 c-51 -51 -77 -67 -112 -67 -14 0 -26 -4 -26 -10 0 -5 -7
-10 -15 -10 -9 0 -42 -19 -73 -42 -31 -23 -59 -44 -61 -45 -2 -2 -2 -5 0 -8 3
-2 18 2 33 10 105 55 116 60 183 85 34 13 133 102 133 119 0 21 -19 11 -62
-32z"/>
<path d="M4497 1203 c-11 -11 -17 -13 -17 -5 0 7 -5 12 -12 12 -18 0 12 -26
40 -35 22 -6 31 8 12 20 -6 4 -8 11 -5 16 9 14 1 11 -18 -8z"/>
<path d="M4313 1196 c-6 -8 -8 -19 -3 -27 7 -11 10 -9 16 6 4 11 12 23 18 27
7 5 5 8 -4 7 -8 0 -20 -6 -27 -13z"/>
<path d="M4025 1190 c-33 -4 -71 -12 -85 -18 l-25 -11 27 0 c15 -1 30 4 33 9
3 6 28 10 55 10 27 0 52 5 55 10 3 6 5 9 3 8 -2 0 -30 -4 -63 -8z"/>
<path d="M4208 1183 c6 -2 18 -2 25 0 6 3 1 5 -13 5 -14 0 -19 -2 -12 -5z"/>
<path d="M4223 1110 c-11 -16 -10 -18 1 -14 15 6 30 34 18 34 -4 0 -13 -9 -19
-20z"/>
<path d="M2351 1104 c0 -11 3 -14 6 -6 3 7 2 16 -1 19 -3 4 -6 -2 -5 -13z"/>
<path d="M3783 1105 c-8 -22 6 -33 17 -15 13 20 12 30 0 30 -6 0 -13 -7 -17
-15z"/>
<path d="M3715 1080 c-3 -5 1 -10 9 -10 8 0 18 5 21 10 3 6 -1 10 -9 10 -8 0
-18 -4 -21 -10z"/>
<path d="M4075 1070 c-22 -4 -35 -8 -28 -9 6 0 18 -8 26 -16 12 -12 21 -12 46
-4 17 6 43 8 56 5 33 -8 33 12 -1 24 -28 11 -39 11 -99 0z"/>
<path d="M1550 1058 c0 -9 5 -20 10 -23 13 -8 13 5 0 25 -8 13 -10 13 -10 -2z"/>
<path d="M2320 1056 c0 -8 -3 -23 -6 -33 -3 -10 2 -7 10 7 18 30 20 40 6 40
-5 0 -10 -6 -10 -14z"/>
<path d="M3060 940 c-13 -8 -13 -10 2 -10 9 0 20 5 23 10 8 13 -5 13 -25 0z"/>
<path d="M3945 880 c28 -12 37 -12 30 0 -3 6 -16 10 -28 9 -21 0 -21 -1 -2 -9z"/>
<path d="M4340 867 c0 -10 -5 -28 -12 -40 -7 -12 -13 -31 -15 -41 -3 -16 2
-13 22 10 18 21 25 24 25 13 0 -27 25 -42 40 -24 10 12 9 16 -4 21 -9 3 -16
11 -16 18 0 6 -9 22 -20 36 -16 21 -20 22 -20 7z"/>
<path d="M4448 796 c-23 -17 -23 -26 2 -26 11 0 20 2 20 4 0 2 3 11 6 20 7 19
-5 20 -28 2z"/>
<path d="M4121 704 c0 -11 3 -14 6 -6 3 7 2 16 -1 19 -3 4 -6 -2 -5 -13z"/>
<path d="M5147 680 c-3 -11 -1 -20 4 -20 5 0 9 9 9 20 0 11 -2 20 -4 20 -2 0
-6 -9 -9 -20z"/>
<path d="M1078 673 c7 -3 16 -2 19 1 4 3 -2 6 -13 5 -11 0 -14 -3 -6 -6z"/>
<path d="M926 655 c-3 -8 -1 -15 3 -15 5 0 11 7 15 15 3 8 1 15 -3 15 -5 0
-11 -7 -15 -15z"/>
<path d="M1230 660 c0 -5 7 -10 15 -10 8 0 15 5 15 10 0 6 -7 10 -15 10 -8 0
-15 -4 -15 -10z"/>
<path d="M1280 640 c0 -5 -7 -10 -16 -10 -9 0 -45 -10 -80 -22 -50 -17 -61
-24 -53 -35 9 -10 8 -13 -4 -13 -9 0 -21 -9 -28 -21 -8 -15 -18 -20 -35 -16
-13 2 -24 1 -24 -2 1 -12 28 -42 31 -34 7 15 176 123 193 123 9 0 16 4 16 9 0
15 32 22 46 10 11 -9 14 -8 14 5 0 11 -9 16 -30 16 -16 0 -30 -4 -30 -10z"/>
<path d="M907 613 c-4 -3 -7 -11 -7 -17 0 -6 5 -5 12 2 6 6 9 14 7 17 -3 3 -9
2 -12 -2z"/>
<path d="M1350 602 c0 -12 19 -26 26 -19 2 2 -2 10 -11 17 -9 8 -15 8 -15 2z"/>
<path d="M4680 580 c0 -5 5 -10 11 -10 5 0 7 5 4 10 -3 6 -8 10 -11 10 -2 0
-4 -4 -4 -10z"/>
<path d="M1380 561 c0 -5 7 -15 17 -22 15 -13 15 -12 4 9 -12 23 -21 28 -21
13z"/>
<path d="M4300 540 c0 -5 5 -10 10 -10 6 0 10 5 10 10 0 6 -4 10 -10 10 -5 0
-10 -4 -10 -10z"/>
<path d="M1410 510 c0 -5 5 -10 11 -10 5 0 7 5 4 10 -3 6 -8 10 -11 10 -2 0
-4 -4 -4 -10z"/>
<path d="M4664 505 c8 -8 17 -15 20 -15 3 0 6 7 6 15 0 9 -9 15 -21 15 -18 0
-19 -2 -5 -15z"/>
<path d="M1020 460 c-11 -11 -20 -28 -20 -37 1 -16 2 -16 16 2 38 50 41 72 4
35z"/>
<path d="M1140 360 c0 -5 5 -10 10 -10 6 0 10 5 10 10 0 6 -4 10 -10 10 -5 0
-10 -4 -10 -10z"/>
<path d="M1190 360 c0 -5 25 -10 56 -10 34 0 53 4 49 10 -3 6 -28 10 -56 10
-27 0 -49 -4 -49 -10z"/>
<path d="M1048 353 c6 -2 18 -2 25 0 6 3 1 5 -13 5 -14 0 -19 -2 -12 -5z"/>
<path d="M1322 349 c6 -18 47 -24 61 -10 8 8 7 11 -3 11 -8 0 -26 3 -39 7 -18
4 -23 2 -19 -8z"/>
<path d="M687 333 c-4 -3 -7 -11 -7 -17 0 -6 5 -5 12 2 6 6 9 14 7 17 -3 3 -9
2 -12 -2z"/>
<path d="M2802 260 c0 -14 2 -19 5 -12 2 6 2 18 0 25 -3 6 -5 1 -5 -13z"/>
<path d="M3688 163 c7 -3 16 -2 19 1 4 3 -2 6 -13 5 -11 0 -14 -3 -6 -6z"/>
</g>
</svg>
